<svg xmlns="http://www.w3.org/2000/svg" version="1.1" xmlns:xlink="http://www.w3.org/1999/xlink" xmlns:svgjs="http://svgjs.dev/svgjs" width="128" height="128" viewBox="0 0 128 128"><g transform="matrix(0.8046875,0,0,0.8046875,12.352777787996267,0.4905294189453073)"><svg viewBox="0 0 78 96" data-background-color="#ffffff" preserveAspectRatio="xMidYMid meet" height="157" width="128" xmlns="http://www.w3.org/2000/svg" xmlns:xlink="http://www.w3.org/1999/xlink"><g id="tight-bounds" transform="matrix(1,0,0,1,0.1114886654008842,0.25950000000000273)"><svg viewBox="0 0 77.77702266919822 95.481" height="95.481" width="77.77702266919822"><g><svg viewBox="0 0 77.77702266919822 95.481" height="95.481" width="77.77702266919822"><g><svg viewBox="0 0 77.77702266919822 95.481" height="95.481" width="77.77702266919822"><g id="textblocktransform"><svg viewBox="0 0 77.77702266919822 95.481" height="95.481" width="77.77702266919822" id="textblock"><g><svg viewBox="0 0 77.77702266919822 95.481" height="95.481" width="77.77702266919822"><g><svg viewBox="0 0 77.77702266919822 95.481" height="95.481" width="77.77702266919822"><g><svg xmlns="http://www.w3.org/2000/svg" xmlns:xlink="http://www.w3.org/1999/xlink" version="1.1" x="0" y="0" viewBox="13.5 5.2 72.9864709330669 89.6" enable-background="new 0 0 100 100" xml:space="preserve" height="95.481" width="77.77702266919822" class="icon-icon-0" data-fill-palette-color="accent" id="icon-0"><g fill="#f98f7c" data-fill-palette-color="accent"><g fill="#f98f7c" data-fill-palette-color="accent"><polygon points="53.6,94.3 63.4,28.3 13.5,72.7 34.1,76.3 25.7,92 30.8,94.8 39.3,79.1   " fill="#f98f7c" data-fill-palette-color="accent"></polygon><g fill="#f98f7c" data-fill-palette-color="accent"><path d="M85.5 21.7C83.7 15.8 79.8 10.9 74.3 8 71 6.2 67.2 5.2 63.4 5.2 54.9 5.2 47.1 9.8 43.1 17.3 39.9 23.2 39.6 29.9 41.7 35.9L48 30.3C47.6 27.2 48.1 23.9 49.7 20.9 52.4 15.8 57.7 12.7 63.5 12.7 66.1 12.7 68.6 13.3 70.9 14.6 74.6 16.6 77.2 19.9 78.4 23.9S79.2 32.1 77.2 35.8C75.6 38.7 73.2 41 70.3 42.4L69 50.7C75.2 49.1 80.6 45.1 83.7 39.3 86.6 33.8 87.3 27.6 85.5 21.7" fill="#f98f7c" data-fill-palette-color="accent"></path></g></g></g></svg></g></svg></g></svg></g></svg></g></svg></g></svg></g><defs></defs></svg><rect width="77.77702266919822" height="95.481" fill="none" stroke="none" visibility="hidden"></rect></g></svg></g></svg>