<svg xmlns="http://www.w3.org/2000/svg" version="1.1" xmlns:xlink="http://www.w3.org/1999/xlink" xmlns:svgjs="http://svgjs.dev/svgjs" width="2000" height="383" viewBox="0 0 2000 383"><g transform="matrix(1,0,0,1,-1.2121212121212466,-0.11286988124999198)"><svg viewBox="0 0 396 76" data-background-color="#ffffff" preserveAspectRatio="xMidYMid meet" height="383" width="2000" xmlns="http://www.w3.org/2000/svg" xmlns:xlink="http://www.w3.org/1999/xlink"><g id="tight-bounds" transform="matrix(1,0,0,1,0.2400000000000091,0.022397156592688816)"><svg viewBox="0 0 395.52 75.9552056868146" height="75.9552056868146" width="395.52"><g><svg viewBox="0 0 487.83597563482937 93.68345942245989" height="75.9552056868146" width="395.52"><g transform="matrix(1,0,0,1,92.31597563482937,12.94756928342246)"><svg viewBox="0 0 395.52 67.78832085561497" height="67.78832085561497" width="395.52"><g id="textblocktransform"><svg viewBox="0 0 395.52 67.78832085561497" height="67.78832085561497" width="395.52" id="textblock"><g><svg viewBox="0 0 395.52 67.78832085561497" height="67.78832085561497" width="395.52"><g transform="matrix(1,0,0,1,0,0)"><svg width="395.52" viewBox="3.61 -35.72 273.9 46.95" height="67.78832085561497" data-palette-color="#0e5ddd"><path d="M9.7-1.23Q8.84-0.61 7.03-0.61 5.22-0.61 4.42-1.31 3.61-2 3.61-3.13L3.61-3.13 3.61-3.69Q3.61-4.13 4.21-5.58 4.81-7.03 4.93-8.47L4.93-8.47Q5.79-18.38 5.79-23.19 5.79-28 5.69-28.81 5.59-29.61 5.24-30.74 4.88-31.86 4.88-31.91L4.88-31.91Q4.88-33.2 6.54-33.5L6.54-33.5Q11.52-34.38 21.09-34.38L21.09-34.38 22.61-34.38Q24.41-34.38 25.21-33.89 26-33.4 26-32.06L26-32.06 26-31.47Q26-29.69 24.34-29.69L24.34-29.69Q23.97-29.69 22.83-29.98 21.68-30.27 20.69-30.46 19.7-30.64 16.52-30.64 13.33-30.64 12.37-29.15 11.4-27.66 11.4-23.29L11.4-23.29Q11.4-21.04 12.12-20.3 12.84-19.56 15.48-19.56L15.48-19.56Q16.14-19.56 17.46-19.82 18.77-20.09 19.73-20.09 20.68-20.09 21.42-19.26 22.17-18.43 22.17-16.92L22.17-16.92Q22.17-14.75 19.92-14.75L19.92-14.75 17.09-14.99Q15.23-14.99 13.77-14.37 12.3-13.75 11.77-12.87L11.77-12.87Q10.45-10.72 10.45-5.69L10.45-5.69 10.57-2.81Q10.57-1.86 9.7-1.23ZM31.74-33.94L31.74-33.94Q31.74-35.72 35.08-35.72L35.08-35.72 35.52-35.72Q36.91-35.72 37.42-35.05 37.94-34.38 37.94-32.45L37.94-32.45 37.74-28.81Q37.67-27.95 37.67-27.88L37.67-27.88 37.62-26.95Q37.57-26.05 37.52-25.12L37.52-25.12 37.45-24.19 37.38-22.8Q36.98-15.38 36.98-11.85 36.98-8.33 37.3-6.79 37.62-5.25 38.3-4.17 38.99-3.1 38.99-2.76L38.99-2.76 38.99-2.47Q38.99-1.39 37.92-0.76 36.86-0.12 35.06-0.12L35.06-0.12 33.79-0.12Q32.66-0.12 31.82-0.77 30.98-1.42 30.98-2.25L30.98-2.25 30.98-2.91 31.13-3.93Q31.42-6.05 31.48-7.12 31.54-8.18 31.69-10.07 31.83-11.96 32.16-18.15 32.49-24.34 32.49-24.8L32.49-24.8 32.59-26.64 32.64-28.44Q32.64-31.03 32.19-32.14 31.74-33.25 31.74-33.94ZM44.89-21.95L44.89-21.95Q44.89-23.49 47.48-23.49L47.48-23.49 48.04-23.49Q49.65-23.49 50.21-22.19 50.78-20.9 50.78-17.36L50.78-17.36 50.48-9.2Q50.48-3.52 54.56-3.52L54.56-3.52Q56.05-3.52 57.42-4.57 58.78-5.62 59.44-7.08L59.44-7.08Q60.88-10.3 60.88-18.63L60.88-18.63 60.83-19.7 60.83-20.65Q60.83-21.95 61.42-22.53 62.01-23.12 63.47-23.12 64.94-23.12 65.4-22.41 65.86-21.7 65.86-20.12L65.86-20.12 65.82-18.82 65.72-13.06Q65.72-11.67 65.89-8.79 66.06-5.91 66.25-4.58 66.45-3.25 66.45-3L66.45-3Q66.45-0.83 63.25-0.83L63.25-0.83Q62.15-0.83 61.07-1.65 59.98-2.47 59.53-2.47 59.08-2.47 58-1.93L58-1.93Q54.95-0.39 52.8-0.39L52.8-0.39 52.19-0.39Q48.7-0.39 47.07-2.54 45.43-4.69 45.43-10.28L45.43-10.28 45.67-17.68Q45.67-19.07 45.28-20.34 44.89-21.61 44.89-21.95ZM92.74-1.71L92.74-1.71Q92.74-0.32 88.54-0.32L88.54-0.32Q86.71-0.32 85.83-1.56L85.83-1.56Q85.78-1.61 85.34-2.58 84.9-3.54 83.55-5.87 82.19-8.2 81.83-8.2L81.83-8.2Q81.19-8.2 78.92-4.81L78.92-4.81Q78.17-3.69 77.62-2.38 77.07-1.07 76.41-0.49 75.75 0.1 74.09 0.1L74.09 0.1Q71.43 0.1 71.43-1.22L71.43-1.22Q71.43-2.08 72.76-3.41 74.09-4.74 75.24-6.27L75.24-6.27Q78.9-11.21 78.9-12.19 78.9-13.18 75.87-17.58L75.87-17.58Q74.89-18.99 73.64-20.25 72.38-21.51 72.38-22.41L72.38-22.41Q72.38-23.71 76.65-23.71L76.65-23.71Q78.19-23.71 79.07-22.73L79.07-22.73Q79.36-22.39 79.75-21.46 80.14-20.53 80.68-19.51L80.68-19.51Q82.44-16.16 83-16.16L83-16.16Q83.78-16.16 85.93-19.63L85.93-19.63Q86.61-20.73 87.04-21.8 87.47-22.88 87.83-23.22L87.83-23.22Q88.59-23.95 90.72-23.95 92.84-23.95 92.84-23.02L92.84-23.02 92.84-22.63Q92.84-22.56 89.31-18.04 85.78-13.53 85.78-12.29 85.78-11.06 89.15-6.3L89.15-6.3Q90.13-4.93 91.44-3.7 92.74-2.47 92.74-1.71ZM122.52-31.81L122.52-31.25Q122.52-29.93 122.02-29.5 121.52-29.08 120.94-29.08L120.94-29.08Q120.91-29.08 120.89-29.08L120.89-29.08Q120.3-29.08 118.98-29.59L118.98-29.59Q117.64-30.13 115.82-30.13 114-30.13 113.16-29.49 112.32-28.86 112.01-27.65 111.71-26.44 111.23-17.57 110.76-8.69 110.76-7.56 110.76-6.42 111.24-4.57 111.73-2.71 111.73-2.54L111.73-2.54Q111.73-1.34 110.65-0.68 109.56-0.02 107.63-0.02 105.7-0.02 104.65-0.67 103.6-1.32 103.6-2.47L103.6-2.47Q103.6-2.98 104.37-4.65 105.14-6.32 105.36-7.93L105.36-7.93Q106.29-15.09 106.29-25.1L106.29-25.1Q106.29-28.1 105.61-29.06 104.92-30.03 103.21-30.03 101.5-30.03 99.53-29.28 97.55-28.54 97.11-28.54L97.11-28.54Q95.91-28.54 95.91-31.05 95.91-33.57 98.26-33.97 100.6-34.38 113.03-34.38L113.03-34.38 114.44-34.38 115.83-34.4Q120.38-34.4 120.99-34.2L120.99-34.2Q122.52-33.72 122.52-31.81L122.52-31.81ZM126.23-11.89L126.23-10.3Q126.23-7.1 127.7-4.98 129.16-2.86 131.29-2.86L131.29-2.86 132.02-2.86Q134.53-2.86 136.28-5.4 138.02-7.93 138.02-12.16L138.02-12.16 138.02-13.77Q138.02-17.04 136.6-19.13 135.17-21.22 132.92-21.22L132.92-21.22 132.43-21.22Q129.82-21.22 128.05-18.63 126.28-16.04 126.28-12.45L126.28-12.45 126.23-11.89ZM131.75 0.46L131.75 0.46 130.97 0.46Q126.7 0.46 124.01-2.51 121.33-5.49 121.33-10.96L121.33-10.96 121.35-11.38Q121.35-17.38 124.52-20.85L124.52-20.85Q126.18-22.68 128.32-23.55 130.46-24.41 132.38-24.41L132.38-24.41 133.58-24.41Q135.73-24.41 137.71-23.46L137.71-23.46Q143.37-20.73 143.37-13.16L143.37-13.16 143.37-12.77Q143.35-10.3 142.57-7.76L142.57-7.76Q141-2.76 136.56-0.68L136.56-0.68Q134.09 0.46 131.75 0.46ZM154.38-0.1L154.38-0.1 152.99-0.1Q150.86-0.1 149.7-0.63 148.54-1.17 148.54-1.97 148.54-2.76 149.47-4.21 150.4-5.66 150.69-7.45L150.69-7.45Q151.33-11.25 151.33-16.55L151.33-16.55Q151.33-16.58 151.4-18.02L151.4-18.02 151.5-19.92 151.57-23.24Q151.57-27.1 151.33-28.11 151.08-29.13 150.44-30.16 149.79-31.2 149.79-31.81L149.79-31.81Q149.79-34.25 154.97-34.25L154.97-34.25 155.89-34.25Q157.43-34.25 158.3-33.65 159.16-33.06 159.16-32.42L159.16-32.42 159.16-32.06Q159.16-31.71 158.42-30.44 157.68-29.17 157.48-28.08L157.48-28.08Q156.7-23.78 156.7-16.09L156.7-16.09 156.53-12.7Q156.5-12.21 156.5-11.74L156.5-11.74 156.43-10.3 156.38-8.45Q156.38-6.05 156.66-5.27 156.94-4.49 157.38-3.71 157.82-2.93 157.82-2.08 157.82-1.22 156.78-0.66 155.75-0.1 154.38-0.1ZM174.88-22.6Q176.76-23.29 178.74-23.29 180.72-23.29 182.86-22.12 184.99-20.95 185.19-20.95 185.38-20.95 187.82-22.14 190.27-23.34 192.23-23.34 194.2-23.34 195.48-22.52 196.76-21.7 197.42-20.58L197.42-20.58Q198.66-18.43 198.66-11.04L198.66-11.04Q198.66-7.71 198.73-7.24 198.79-6.76 199.07-5.55 199.35-4.35 199.35-3.58 199.35-2.81 198.71-1.98 198.08-1.15 197.03-1.15L197.03-1.15Q194.95-1.15 194.56-2.83L194.56-2.83Q194.27-4.05 193.88-9.96L193.88-9.96Q193.51-15.87 193.07-16.89L193.07-16.89Q192.19-19.04 189.34-19.04L189.34-19.04Q187.51-19.04 186.48-16.75L186.48-16.75Q184.99-13.45 184.99-7.37L184.99-7.37 185.24-3.86Q185.24-2 183.87-1.05L183.87-1.05Q182.99-0.44 181.54-0.44 180.09-0.44 179.62-0.73L179.62-0.73Q178.82-1.22 178.82-2.81L178.82-2.81Q178.82-3.1 179.29-5.21 179.77-7.32 179.77-12.1 179.77-16.87 179.06-18.18 178.35-19.48 176.59-19.48 174.84-19.48 173.48-18.29 172.13-17.09 171.5-15.67 170.88-14.26 170.4-8.94 169.93-3.61 169.73-2.83L169.73-2.83Q169.39-1.49 167.77-1.49 166.14-1.49 165.55-2.45 164.95-3.42 164.95-4.81L164.95-4.81 165.07-5.66 165.53-7.35Q165.83-8.52 165.88-10.08L165.88-10.08Q166.24-19.78 166.44-21.14 166.63-22.51 168.2-22.51L168.2-22.51 171.83-21.9Q173-21.9 174.88-22.6ZM213.19-3.08L213.19-3.08 213.82-3.08Q215.82-3.08 217.35-4.43 218.88-5.79 218.88-7.57L218.88-7.57 218.93-7.89 218.93-8.2 218.97-8.96 218.97-10.35Q218.97-11.77 217.53-11.77L217.53-11.77 216.44-11.77 216.26-11.74 215.31-11.67Q214.63-11.57 214.34-11.57L214.34-11.57Q212.36-11.57 210.67-10.08L210.67-10.08Q209.5-9.03 209.5-7.1L209.5-7.1 209.5-6.62Q209.5-4.98 210.56-4.03 211.63-3.08 213.19-3.08ZM207.74-18.68L207.74-18.68Q206.11-18.68 206.11-20.78L206.11-20.78Q206.11-22.34 208.76-23.5 211.41-24.66 214.26-24.66L214.26-24.66 215.48-24.66Q217.95-24.66 219.83-23.74 221.71-22.83 222.7-21.26 223.69-19.7 223.91-17.19L223.91-17.19Q223.95-16.6 223.95-11.5 223.95-6.4 224.09-5.63 224.22-4.86 224.87-3.76 225.52-2.66 225.52-1.95 225.52-1.25 224.85-0.74 224.17-0.24 222.9-0.24 221.64-0.24 220.15-0.87 218.66-1.49 217.97-1.49L217.97-1.49Q217.9-1.49 215.53-0.62 213.16 0.24 211.53 0.24L211.53 0.24 210.99 0.24Q208.26 0.24 206.34-1.49 204.42-3.22 204.42-6.42 204.42-9.62 206.52-11.41 208.62-13.21 211.63-13.87L211.63-13.87Q212.53-14.06 214.63-14.38 216.73-14.7 217.48-15.04L217.48-15.04Q218.8-15.65 218.8-17.35 218.8-19.04 217.68-20.01 216.56-20.97 215.01-20.97 213.46-20.97 210.94-19.82 208.43-18.68 207.74-18.68ZM235.5-11.3L235.5-11.3 235.5-10.55Q235.5-7.28 236.75-5.42 237.99-3.56 239.87-3.56L239.87-3.56 240.72-3.56Q243.43-3.56 244.95-5.85 246.46-8.13 246.46-12.26L246.46-12.26Q246.51-12.74 246.51-13.01L246.51-13.01 246.56-14.01 246.56-15.48Q246.51-15.97 246.51-16.21L246.51-16.21Q246.51-18.14 245.58-19.24 244.66-20.34 242.85-20.34L242.85-20.34 242.17-20.34Q239.28-20.34 237.39-17.92 235.5-15.5 235.5-11.3ZM249.68-22.34L249.68-22.34Q251.81-22.34 251.81-19.26L251.81-19.26Q251.81-18.46 251.15-12.52 250.49-6.59 250.49-2.44L250.49-2.44Q250.49 1.76 249.93 3.86L249.93 3.86Q248.73 8.37 244.39 10.25L244.39 10.25Q242.12 11.23 239.37 11.23 236.62 11.23 234.49 10.25 232.35 9.28 232.35 7.91L232.35 7.91Q232.35 6.35 234.45 6.35L234.45 6.35Q234.87 6.35 236.7 6.67 238.53 6.98 239.33 6.98L239.33 6.98Q242.29 6.98 244.18 5.14 246.07 3.3 246.07 0.42L246.07 0.42Q246.07-1.1 244.95-1.1L244.95-1.1Q244.75-1.1 244.02-0.95L244.02-0.95Q241.95-0.54 240.24-0.54L240.24-0.54Q235.89-0.54 233.69-3.17L233.69-3.17Q232.67-4.39 231.95-6.43 231.23-8.47 231.23-10.74L231.23-10.74 231.23-11.43Q231.23-13.82 232.02-16.15 232.81-18.48 234.13-20.08 235.45-21.68 237.58-22.58 239.7-23.49 241.92-23.49L241.92-23.49 242.56-23.49Q243.8-23.49 245.77-22.81 247.73-22.14 248.17-22.14L248.17-22.14Q249.15-22.34 249.68-22.34ZM262.62-14.84L262.62-14.84 262.62-14.45Q262.62-13.72 263.96-13.72L263.96-13.72 264.55-13.72 264.7-13.75 265.89-13.84Q267.77-14.11 268.33-14.11L268.33-14.11Q271-14.11 272.34-15.11L272.34-15.11Q272.97-15.6 272.97-16.85L272.97-16.85 272.97-17.11Q272.97-18.95 271.76-20.02 270.56-21.09 268.87-21.09L268.87-21.09 268.7-21.09 268.55-21.07Q266.19-21.07 264.4-19.07 262.62-17.07 262.62-14.84ZM267.94 0.32L267.94 0.32 267.41 0.32Q262.74 0.32 259.98-2.65 257.23-5.62 257.23-10.57L257.23-10.57 257.23-11.65Q257.23-14.01 258.15-16.46L258.15-16.46Q260.03-21.34 264.28-23.19L264.28-23.19Q266.53-24.19 268.85-24.19L268.85-24.19 269.9-24.19Q273.1-24.19 275.3-22.06 277.51-19.92 277.51-16.55L277.51-16.55 277.51-16.06Q277.51-13.67 275.61-12.67L275.61-12.67Q274.29-11.96 269.46-11.25 264.62-10.55 264.18-10.4L264.18-10.4Q262.72-9.89 262.72-8.45L262.72-8.45Q262.72-6.45 264.43-5.03 266.14-3.61 269.02-3.61L269.02-3.61Q270.36-3.61 272.68-4.35 275-5.08 275.37-5.08L275.37-5.08Q276.61-5.08 276.61-4L276.61-4Q276.61-2.56 273.8-1.12 271 0.32 267.94 0.32Z" opacity="1" transform="matrix(1,0,0,1,0,0)" fill="#ffffff" class="wordmark-text-0" data-fill-palette-color="primary" id="text-0"></path></svg></g></svg></g></svg></g></svg></g><g><svg viewBox="0 0 76.31278000051921 93.68345942245989" height="93.68345942245989" width="76.31278000051921"><g><svg xmlns="http://www.w3.org/2000/svg" xmlns:xlink="http://www.w3.org/1999/xlink" version="1.1" x="0" y="0" viewBox="13.5 5.2 72.9864709330669 89.6" enable-background="new 0 0 100 100" xml:space="preserve" height="93.68345942245989" width="76.31278000051921" class="icon-icon-0" data-fill-palette-color="accent" id="icon-0"><g fill="#f98f7c" data-fill-palette-color="accent"><g fill="#f98f7c" data-fill-palette-color="accent"><polygon points="53.6,94.3 63.4,28.3 13.5,72.7 34.1,76.3 25.7,92 30.8,94.8 39.3,79.1   " fill="#ffffff" data-fill-palette-color="accent"></polygon><g fill="#f98f7c" data-fill-palette-color="accent"><path d="M85.5 21.7C83.7 15.8 79.8 10.9 74.3 8 71 6.2 67.2 5.2 63.4 5.2 54.9 5.2 47.1 9.8 43.1 17.3 39.9 23.2 39.6 29.9 41.7 35.9L48 30.3C47.6 27.2 48.1 23.9 49.7 20.9 52.4 15.8 57.7 12.7 63.5 12.7 66.1 12.7 68.6 13.3 70.9 14.6 74.6 16.6 77.2 19.9 78.4 23.9S79.2 32.1 77.2 35.8C75.6 38.7 73.2 41 70.3 42.4L69 50.7C75.2 49.1 80.6 45.1 83.7 39.3 86.6 33.8 87.3 27.6 85.5 21.7" fill="#ffffff" data-fill-palette-color="accent"></path></g></g></g></svg></g></svg></g></svg></g><defs></defs></svg><rect width="395.52" height="75.9552056868146" fill="none" stroke="none" visibility="hidden"></rect></g></svg></g></svg>